<mxfile host="app.diagrams.net" modified="2021-07-02T04:03:14.103Z" agent="5.0 (X11; Linux x86_64) AppleWebKit/537.36 (KHTML, like Gecko) Chrome/90.0.4430.93 Safari/537.36" etag="bZh1oviYS63vRc5LEPD_" version="14.8.2" type="github">
  <diagram id="GXnI0iMTj2cHC1lOnszO" name="Page-1">
    <mxGraphModel dx="1862" dy="594" grid="1" gridSize="10" guides="1" tooltips="1" connect="1" arrows="1" fold="1" page="1" pageScale="1" pageWidth="827" pageHeight="1169" math="0" shadow="0">
      <root>
        <mxCell id="0" />
        <mxCell id="1" parent="0" />
        <mxCell id="vF5ghhq5Yg48Jj5as7LA-6" value="" style="rounded=0;whiteSpace=wrap;html=1;" parent="1" vertex="1">
          <mxGeometry x="110" y="100" width="270" height="470" as="geometry" />
        </mxCell>
        <mxCell id="vF5ghhq5Yg48Jj5as7LA-2" value="&lt;pre style=&quot;background-color: rgb(255 , 255 , 255) ; font-family: &amp;#34;jetbrains mono&amp;#34; , monospace ; font-size: 9.8pt&quot;&gt;ControlManager&lt;/pre&gt;" style="text;html=1;align=center;verticalAlign=middle;resizable=0;points=[];autosize=1;strokeColor=none;" parent="1" vertex="1">
          <mxGeometry x="185" y="90" width="110" height="50" as="geometry" />
        </mxCell>
        <mxCell id="JdYMFB5UEBQZJn8opRw6-7" style="rounded=0;orthogonalLoop=1;jettySize=auto;html=1;entryX=0;entryY=0.5;entryDx=0;entryDy=0;" edge="1" parent="1" source="vF5ghhq5Yg48Jj5as7LA-3" target="JdYMFB5UEBQZJn8opRw6-5">
          <mxGeometry relative="1" as="geometry" />
        </mxCell>
        <mxCell id="JdYMFB5UEBQZJn8opRw6-15" style="edgeStyle=none;rounded=0;orthogonalLoop=1;jettySize=auto;html=1;entryX=0;entryY=0.5;entryDx=0;entryDy=0;" edge="1" parent="1" source="vF5ghhq5Yg48Jj5as7LA-3" target="JdYMFB5UEBQZJn8opRw6-14">
          <mxGeometry relative="1" as="geometry" />
        </mxCell>
        <mxCell id="vF5ghhq5Yg48Jj5as7LA-3" value="&lt;pre style=&quot;background-color: rgb(255 , 255 , 255) ; font-family: &amp;#34;jetbrains mono&amp;#34; , monospace ; font-size: 9.8pt&quot;&gt;ControlMsgThread&lt;/pre&gt;" style="ellipse;whiteSpace=wrap;html=1;" parent="1" vertex="1">
          <mxGeometry x="185" y="170" width="120" height="80" as="geometry" />
        </mxCell>
        <mxCell id="vF5ghhq5Yg48Jj5as7LA-4" value="&lt;pre style=&quot;background-color: rgb(255 , 255 , 255) ; font-family: &amp;#34;jetbrains mono&amp;#34; , monospace ; font-size: 9.8pt&quot;&gt;ShowMsgThread&lt;/pre&gt;" style="ellipse;whiteSpace=wrap;html=1;" parent="1" vertex="1">
          <mxGeometry x="185" y="310" width="120" height="80" as="geometry" />
        </mxCell>
        <mxCell id="vF5ghhq5Yg48Jj5as7LA-5" value="&lt;pre style=&quot;background-color: rgb(255 , 255 , 255) ; font-family: &amp;#34;jetbrains mono&amp;#34; , monospace ; font-size: 9.8pt&quot;&gt;SerialMsgThread&lt;/pre&gt;" style="ellipse;whiteSpace=wrap;html=1;" parent="1" vertex="1">
          <mxGeometry x="185" y="440" width="120" height="80" as="geometry" />
        </mxCell>
        <mxCell id="JdYMFB5UEBQZJn8opRw6-2" value="" style="group" vertex="1" connectable="0" parent="1">
          <mxGeometry x="720" y="200" width="190" height="250" as="geometry" />
        </mxCell>
        <mxCell id="vF5ghhq5Yg48Jj5as7LA-7" value="" style="rounded=0;whiteSpace=wrap;html=1;" parent="JdYMFB5UEBQZJn8opRw6-2" vertex="1">
          <mxGeometry width="190" height="250" as="geometry" />
        </mxCell>
        <mxCell id="vF5ghhq5Yg48Jj5as7LA-8" value="&lt;pre style=&quot;background-color: rgb(255 , 255 , 255) ; font-family: &amp;#34;jetbrains mono&amp;#34; , monospace ; font-size: 9.8pt&quot;&gt;mainTask&lt;/pre&gt;" style="ellipse;whiteSpace=wrap;html=1;" parent="JdYMFB5UEBQZJn8opRw6-2" vertex="1">
          <mxGeometry x="30" y="90" width="120" height="80" as="geometry" />
        </mxCell>
        <mxCell id="vF5ghhq5Yg48Jj5as7LA-9" value="&lt;pre style=&quot;background-color: rgb(255 , 255 , 255) ; font-family: &amp;#34;jetbrains mono&amp;#34; , monospace ; font-size: 9.8pt&quot;&gt;ControlDataManager&lt;/pre&gt;" style="text;html=1;align=center;verticalAlign=middle;resizable=0;points=[];autosize=1;strokeColor=none;" parent="JdYMFB5UEBQZJn8opRw6-2" vertex="1">
          <mxGeometry x="25" y="5" width="140" height="50" as="geometry" />
        </mxCell>
        <mxCell id="JdYMFB5UEBQZJn8opRw6-5" value="&lt;pre style=&quot;background-color: rgb(255 , 255 , 255) ; font-family: &amp;#34;jetbrains mono&amp;#34; , monospace ; font-size: 9.8pt&quot;&gt;&lt;span style=&quot;font-weight: bold&quot;&gt;mWorkInfo&lt;/span&gt;&lt;/pre&gt;" style="shape=process;whiteSpace=wrap;html=1;backgroundOutline=1;" vertex="1" parent="1">
          <mxGeometry x="490" y="300" width="120" height="60" as="geometry" />
        </mxCell>
        <mxCell id="JdYMFB5UEBQZJn8opRw6-6" style="edgeStyle=orthogonalEdgeStyle;rounded=0;orthogonalLoop=1;jettySize=auto;html=1;entryX=1;entryY=0.5;entryDx=0;entryDy=0;" edge="1" parent="1" source="vF5ghhq5Yg48Jj5as7LA-8" target="JdYMFB5UEBQZJn8opRw6-5">
          <mxGeometry relative="1" as="geometry" />
        </mxCell>
        <mxCell id="vF5ghhq5Yg48Jj5as7LA-13" value="100ms轮询" style="text;html=1;align=center;verticalAlign=middle;resizable=0;points=[];autosize=1;strokeColor=none;" parent="1" vertex="1">
          <mxGeometry x="640" y="310" width="80" height="20" as="geometry" />
        </mxCell>
        <mxCell id="JdYMFB5UEBQZJn8opRw6-9" style="edgeStyle=none;rounded=0;orthogonalLoop=1;jettySize=auto;html=1;entryX=0;entryY=0.5;entryDx=0;entryDy=0;" edge="1" parent="1" source="JdYMFB5UEBQZJn8opRw6-8" target="vF5ghhq5Yg48Jj5as7LA-3">
          <mxGeometry relative="1" as="geometry" />
        </mxCell>
        <mxCell id="JdYMFB5UEBQZJn8opRw6-8" value="&lt;pre style=&quot;background-color: rgb(255 , 255 , 255) ; font-family: &amp;#34;jetbrains mono&amp;#34; , monospace ; font-size: 9.8pt&quot;&gt;&lt;span style=&quot;font-weight: bold&quot;&gt;mArrayControlMsg&lt;/span&gt;&lt;/pre&gt;" style="shape=process;whiteSpace=wrap;html=1;backgroundOutline=1;" vertex="1" parent="1">
          <mxGeometry x="-140" y="180" width="160" height="60" as="geometry" />
        </mxCell>
        <mxCell id="JdYMFB5UEBQZJn8opRw6-10" value="take" style="text;html=1;align=center;verticalAlign=middle;resizable=0;points=[];autosize=1;strokeColor=none;" vertex="1" parent="1">
          <mxGeometry x="70" y="190" width="40" height="20" as="geometry" />
        </mxCell>
        <mxCell id="JdYMFB5UEBQZJn8opRw6-11" value="&lt;pre style=&quot;background-color: rgb(255 , 255 , 255) ; font-family: &amp;#34;jetbrains mono&amp;#34; , monospace ; font-size: 9.8pt&quot;&gt;ArrayBlockingQueue&lt;/pre&gt;" style="text;html=1;align=center;verticalAlign=middle;resizable=0;points=[];autosize=1;strokeColor=none;" vertex="1" parent="1">
          <mxGeometry x="-130" y="230" width="140" height="50" as="geometry" />
        </mxCell>
        <mxCell id="JdYMFB5UEBQZJn8opRw6-14" value="&lt;pre style=&quot;background-color: rgb(255 , 255 , 255) ; font-family: &amp;#34;jetbrains mono&amp;#34; , monospace ; font-size: 9.8pt&quot;&gt;&lt;span style=&quot;font-weight: bold&quot;&gt;mShowStringList&lt;/span&gt;&lt;/pre&gt;" style="shape=process;whiteSpace=wrap;html=1;backgroundOutline=1;" vertex="1" parent="1">
          <mxGeometry x="480" y="180" width="140" height="60" as="geometry" />
        </mxCell>
        <mxCell id="JdYMFB5UEBQZJn8opRw6-17" style="edgeStyle=none;rounded=0;orthogonalLoop=1;jettySize=auto;html=1;entryX=1;entryY=0.5;entryDx=0;entryDy=0;" edge="1" parent="1" source="vF5ghhq5Yg48Jj5as7LA-8" target="JdYMFB5UEBQZJn8opRw6-14">
          <mxGeometry relative="1" as="geometry" />
        </mxCell>
        <mxCell id="JdYMFB5UEBQZJn8opRw6-18" value="100ms轮询" style="text;html=1;align=center;verticalAlign=middle;resizable=0;points=[];autosize=1;strokeColor=none;rotation=30;" vertex="1" parent="1">
          <mxGeometry x="660" y="230" width="80" height="20" as="geometry" />
        </mxCell>
        <mxCell id="JdYMFB5UEBQZJn8opRw6-19" value="&lt;pre style=&quot;background-color: rgb(255 , 255 , 255) ; font-family: &amp;#34;jetbrains mono&amp;#34; , monospace&quot;&gt;&lt;font style=&quot;font-size: 11px&quot;&gt;setWorkInfo&lt;/font&gt;&lt;/pre&gt;" style="text;html=1;align=center;verticalAlign=middle;resizable=0;points=[];autosize=1;strokeColor=none;rotation=30;" vertex="1" parent="1">
          <mxGeometry x="374" y="255" width="80" height="40" as="geometry" />
        </mxCell>
        <mxCell id="JdYMFB5UEBQZJn8opRw6-20" value="&lt;pre style=&quot;background-color: rgb(255 , 255 , 255) ; font-family: &amp;#34;jetbrains mono&amp;#34; , monospace&quot;&gt;&lt;font style=&quot;font-size: 11px&quot;&gt;receiveShowData&lt;/font&gt;&lt;/pre&gt;" style="text;html=1;align=center;verticalAlign=middle;resizable=0;points=[];autosize=1;strokeColor=none;" vertex="1" parent="1">
          <mxGeometry x="355" y="175" width="110" height="40" as="geometry" />
        </mxCell>
        <mxCell id="JdYMFB5UEBQZJn8opRw6-21" value="&lt;pre style=&quot;background-color: rgb(255 , 255 , 255) ; font-family: &amp;#34;jetbrains mono&amp;#34; , monospace ; font-size: 9.8pt&quot;&gt;List&lt;/pre&gt;" style="text;html=1;align=center;verticalAlign=middle;resizable=0;points=[];autosize=1;strokeColor=none;" vertex="1" parent="1">
          <mxGeometry x="520" y="230" width="40" height="50" as="geometry" />
        </mxCell>
        <mxCell id="JdYMFB5UEBQZJn8opRw6-27" style="edgeStyle=none;rounded=0;orthogonalLoop=1;jettySize=auto;html=1;entryX=0;entryY=0.5;entryDx=0;entryDy=0;" edge="1" parent="1" source="JdYMFB5UEBQZJn8opRw6-26" target="JdYMFB5UEBQZJn8opRw6-8">
          <mxGeometry relative="1" as="geometry" />
        </mxCell>
        <mxCell id="JdYMFB5UEBQZJn8opRw6-26" value="MyService" style="rounded=0;whiteSpace=wrap;html=1;" vertex="1" parent="1">
          <mxGeometry x="-440" y="180" width="120" height="60" as="geometry" />
        </mxCell>
        <mxCell id="JdYMFB5UEBQZJn8opRw6-28" value="Aidl Server" style="text;html=1;align=center;verticalAlign=middle;resizable=0;points=[];autosize=1;strokeColor=none;" vertex="1" parent="1">
          <mxGeometry x="-420" y="150" width="80" height="20" as="geometry" />
        </mxCell>
        <mxCell id="JdYMFB5UEBQZJn8opRw6-29" value="&lt;pre style=&quot;background-color: rgb(255 , 255 , 255) ; font-family: &amp;#34;jetbrains mono&amp;#34; , monospace ; font-size: 9.8pt&quot;&gt;receiveControlMsg&lt;/pre&gt;" style="text;html=1;align=center;verticalAlign=middle;resizable=0;points=[];autosize=1;strokeColor=none;" vertex="1" parent="1">
          <mxGeometry x="-310" y="170" width="130" height="50" as="geometry" />
        </mxCell>
        <mxCell id="JdYMFB5UEBQZJn8opRw6-32" style="edgeStyle=none;rounded=0;orthogonalLoop=1;jettySize=auto;html=1;entryX=0;entryY=0.5;entryDx=0;entryDy=0;" edge="1" parent="1" source="JdYMFB5UEBQZJn8opRw6-31" target="JdYMFB5UEBQZJn8opRw6-26">
          <mxGeometry relative="1" as="geometry" />
        </mxCell>
        <mxCell id="JdYMFB5UEBQZJn8opRw6-31" value="WorkManager" style="rounded=0;whiteSpace=wrap;html=1;" vertex="1" parent="1">
          <mxGeometry x="-730" y="180" width="120" height="60" as="geometry" />
        </mxCell>
        <mxCell id="JdYMFB5UEBQZJn8opRw6-33" value="&lt;pre style=&quot;background-color: rgb(255 , 255 , 255) ; font-family: &amp;#34;jetbrains mono&amp;#34; , monospace ; font-size: 9.8pt&quot;&gt;sendControlMsg&lt;/pre&gt;" style="text;html=1;align=center;verticalAlign=middle;resizable=0;points=[];autosize=1;strokeColor=none;" vertex="1" parent="1">
          <mxGeometry x="-590" y="175" width="110" height="50" as="geometry" />
        </mxCell>
        <mxCell id="JdYMFB5UEBQZJn8opRw6-34" value="Aidl Client" style="text;html=1;align=center;verticalAlign=middle;resizable=0;points=[];autosize=1;strokeColor=none;" vertex="1" parent="1">
          <mxGeometry x="-705" y="155" width="70" height="20" as="geometry" />
        </mxCell>
        <mxCell id="JdYMFB5UEBQZJn8opRw6-35" value="Aidl call" style="text;html=1;align=center;verticalAlign=middle;resizable=0;points=[];autosize=1;strokeColor=none;" vertex="1" parent="1">
          <mxGeometry x="-580" y="215" width="60" height="20" as="geometry" />
        </mxCell>
        <mxCell id="JdYMFB5UEBQZJn8opRw6-36" value="" style="endArrow=none;dashed=1;html=1;" edge="1" parent="1">
          <mxGeometry width="50" height="50" relative="1" as="geometry">
            <mxPoint x="-480" y="600" as="sourcePoint" />
            <mxPoint x="-480" y="30" as="targetPoint" />
          </mxGeometry>
        </mxCell>
        <mxCell id="JdYMFB5UEBQZJn8opRw6-37" value="PreControlServer" style="text;html=1;align=center;verticalAlign=middle;resizable=0;points=[];autosize=1;strokeColor=none;" vertex="1" parent="1">
          <mxGeometry x="-725" y="60" width="110" height="20" as="geometry" />
        </mxCell>
        <mxCell id="JdYMFB5UEBQZJn8opRw6-38" value="ControlServer" style="text;html=1;align=center;verticalAlign=middle;resizable=0;points=[];autosize=1;strokeColor=none;" vertex="1" parent="1">
          <mxGeometry x="-440" y="60" width="90" height="20" as="geometry" />
        </mxCell>
      </root>
    </mxGraphModel>
  </diagram>
</mxfile>
